<?xml version="1.0" standalone="no"?>
<!DOCTYPE svg PUBLIC "-//W3C//DTD SVG 20010904//EN"
 "http://www.w3.org/TR/2001/REC-SVG-20010904/DTD/svg10.dtd">
<svg version="1.0" xmlns="http://www.w3.org/2000/svg"
 width="500.000000pt" height="500.000000pt" viewBox="0 0 500.000000 500.000000"
 preserveAspectRatio="xMidYMid meet">
<metadata>
Created by potrace 1.13, written by Peter Selinger 2001-2015
</metadata>
<g transform="translate(0.000000,500.000000) scale(0.100000,-0.100000)"
fill="#000000" stroke="none">
<path d="M540 3095 l0 -1295 1960 0 1960 0 0 1295 0 1295 -1960 0 -1960 0 0
-1295z m3734 1145 c61 -23 81 -115 32 -156 -15 -13 -37 -24 -49 -24 -20 1 -20
2 -4 11 19 11 23 59 7 88 -14 26 -65 45 -103 37 -18 -4 -44 -20 -60 -39 l-28
-32 16 39 c8 21 15 40 15 41 0 2 15 12 33 24 35 22 99 28 141 11z m-1756 -301
c2 -20 -13 -48 -60 -109 -35 -45 -69 -91 -76 -101 -11 -14 3 -11 66 16 44 18
88 38 98 43 11 5 30 14 44 19 14 6 45 20 68 32 52 25 97 27 106 5 13 -34 4
-51 -44 -88 -28 -21 -49 -41 -46 -43 3 -3 145 39 262 79 41 14 64 5 64 -25 0
-26 -23 -54 -85 -104 -35 -29 -37 -32 -17 -33 12 0 30 4 40 9 9 5 33 13 52 18
99 28 126 37 134 45 21 17 65 8 82 -17 16 -24 16 -27 -1 -45 -10 -11 -38 -33
-62 -48 -23 -15 -43 -31 -43 -35 0 -10 61 -3 192 19 95 17 128 10 128 -28 0
-22 -26 -58 -41 -58 -9 0 -18 -7 -69 -50 l-25 -21 55 6 c30 3 96 8 145 11 90
6 91 6 103 -20 14 -31 7 -53 -22 -68 -46 -24 -136 -83 -136 -90 0 -5 28 -9 63
-10 69 -2 87 -3 199 -14 57 -5 82 -12 95 -26 20 -23 10 -46 -28 -64 -13 -7
-44 -21 -67 -33 -24 -12 -52 -21 -63 -21 -10 0 -19 -4 -19 -10 0 -10 11 -13
110 -29 36 -6 81 -13 100 -16 19 -3 54 -9 77 -12 29 -4 47 -13 58 -29 27 -42
7 -60 -95 -84 -30 -8 -59 -17 -64 -22 -6 -4 -25 -8 -44 -8 -47 0 -31 -17 26
-26 54 -9 52 -9 72 -17 8 -3 29 -8 45 -11 17 -2 48 -10 70 -18 32 -10 41 -18
43 -40 4 -36 -24 -48 -132 -57 -81 -6 -109 -23 -59 -35 15 -4 51 -18 78 -31
28 -13 59 -25 70 -27 28 -5 53 -53 39 -75 -13 -20 -40 -21 -206 -8 -66 5 -98
5 -98 -2 0 -6 50 -58 110 -115 110 -105 126 -132 96 -157 -15 -13 -58 -6 -91
14 -11 6 -38 18 -60 25 -22 7 -44 16 -50 20 -5 4 -21 11 -35 15 -14 4 -51 19
-82 33 -60 26 -69 42 -48 83 13 24 26 24 79 -2 24 -11 45 -19 47 -17 2 2 -21
29 -51 58 -76 75 -75 121 4 136 45 9 46 18 3 33 -50 18 -62 29 -62 58 0 18 9
28 35 39 19 7 45 14 59 14 14 0 28 5 31 10 3 6 -4 10 -18 10 -13 0 -39 5 -58
11 -102 35 -89 100 26 134 52 15 56 18 39 29 -11 8 -39 16 -64 19 -118 15
-152 27 -168 61 -13 28 1 48 59 81 24 13 42 25 39 26 -18 5 -55 10 -123 15
-74 6 -80 9 -97 37 -16 26 -17 34 -5 56 7 14 22 35 34 45 12 11 21 22 21 26 0
4 -26 4 -57 1 -116 -10 -154 -7 -169 14 -22 29 -17 50 21 89 19 20 31 36 27
36 -3 0 -55 -7 -115 -16 -99 -14 -110 -14 -132 0 -27 18 -35 71 -12 79 6 2 8
8 4 13 -4 4 -17 3 -27 -4 -11 -7 -33 -12 -49 -12 -17 0 -33 -4 -36 -10 -7 -11
-45 -13 -70 -4 -8 4 -22 19 -31 35 -12 24 -12 33 -2 51 7 13 18 26 23 30 18
14 -2 8 -99 -27 -106 -38 -132 -42 -159 -20 -15 10 -17 21 -12 45 7 30 6 32
-16 25 -13 -4 -36 -14 -50 -21 -38 -19 -111 -44 -131 -44 -48 0 -43 88 9 150
29 35 24 49 -10 31 -77 -41 -285 -250 -357 -357 -8 -12 -30 -43 -47 -69 -18
-25 -33 -48 -33 -51 0 -3 -13 -24 -28 -47 -15 -23 -43 -73 -62 -112 -19 -38
-38 -71 -42 -73 -5 -2 -8 -12 -8 -23 0 -10 -4 -19 -9 -19 -5 0 -23 -29 -41
-64 -17 -35 -37 -70 -45 -76 -8 -7 -15 -16 -15 -21 0 -18 -108 -156 -175 -224
-64 -65 -182 -155 -203 -155 -4 0 -28 -10 -53 -22 -29 -14 -70 -23 -121 -26
-77 -5 -77 -4 -84 23 -9 38 8 50 94 65 101 17 187 67 294 169 49 46 88 89 88
96 0 6 14 24 30 40 17 16 30 34 30 40 0 7 9 20 20 30 11 10 20 24 20 32 0 7 5
13 10 13 6 0 10 9 10 20 0 11 4 20 8 20 5 0 23 28 41 63 18 34 41 76 51 92 11
17 33 57 50 90 90 172 190 307 334 451 132 131 208 190 325 250 103 53 154 57
159 13z m-156 -906 c16 -15 28 -35 28 -44 0 -10 5 -21 10 -24 25 -15 4 -160
-40 -270 -6 -16 -11 -31 -11 -32 0 -2 -13 -28 -29 -59 -17 -31 -27 -60 -24
-65 3 -5 36 -9 73 -9 51 0 72 -4 82 -16 11 -14 10 -18 -6 -30 -15 -11 -40 -13
-114 -8 -53 4 -98 8 -100 10 -2 2 -13 -4 -23 -13 -13 -12 -24 -14 -34 -8 -12
8 -15 57 -17 288 -3 281 1 317 32 298 19 -12 31 -150 30 -341 0 -85 0 -159 0
-165 1 -13 91 166 91 181 0 6 8 26 17 45 18 36 30 151 19 193 -6 26 -46 46
-86 43 -17 -1 -26 4 -28 17 -10 49 82 55 130 9z m249 -18 c4 -17 7 -141 8
-276 1 -256 -4 -291 -42 -276 -14 5 -16 42 -19 284 -2 157 1 284 6 291 15 21
40 9 47 -23z m-619 13 c58 -28 81 -116 67 -263 -21 -230 -48 -295 -130 -310
-33 -6 -41 -3 -77 29 -92 84 -109 211 -52 399 17 54 31 78 66 113 49 47 78 54
126 32z m1210 -15 c15 -16 32 -41 39 -58 27 -66 3 -346 -36 -429 -23 -47 -47
-67 -92 -73 -34 -4 -42 -1 -76 34 -63 62 -71 84 -71 208 -1 158 30 250 104
309 56 45 96 47 132 9z m-385 -135 c26 -24 29 -51 9 -88 -12 -22 -12 -28 4
-51 75 -104 62 -290 -24 -374 -52 -50 -157 -71 -209 -42 -65 36 -41 85 27 53
47 -22 75 -20 117 8 54 37 84 105 83 188 0 39 -5 73 -12 80 -7 7 -12 19 -12
28 0 9 -11 27 -25 40 -29 27 -32 56 -9 81 20 22 12 49 -16 49 -19 0 -28 28
-13 43 14 14 58 6 80 -15z"/>
<path d="M1896 2948 c-34 -45 -66 -150 -73 -233 -4 -65 -2 -75 29 -135 27 -53
38 -66 60 -68 22 -3 30 3 44 30 41 80 61 369 28 416 -22 32 -58 28 -88 -10z"/>
<path d="M3094 2958 c-48 -54 -83 -180 -78 -282 5 -85 58 -172 101 -164 26 5
45 51 65 163 22 129 22 230 -1 270 -22 39 -59 44 -87 13z"/>
<path d="M1261 1708 c-83 -41 -134 -151 -111 -239 7 -24 24 -60 38 -79 15 -19
26 -36 25 -37 -2 -2 9 -15 22 -29 30 -32 25 -43 -9 -21 -28 19 -28 19 -75 -65
l-31 -56 26 -21 c15 -12 34 -21 43 -21 10 0 35 33 63 83 l47 82 46 -3 c55 -5
130 21 146 49 5 11 15 16 21 13 7 -4 8 -3 4 4 -4 7 6 31 22 54 16 24 32 52 36
62 9 25 -3 108 -15 100 -5 -3 -12 2 -15 10 -9 24 -124 102 -177 120 -59 20
-53 20 -106 -6z"/>
<path d="M1042 1578 c-7 -7 -12 -41 -12 -84 0 -51 -4 -77 -15 -88 -8 -8 -15
-23 -15 -34 0 -11 7 -22 15 -26 12 -4 15 -33 15 -169 0 -113 4 -167 12 -175
17 -17 439 -17 456 0 7 7 12 31 12 54 0 25 6 47 15 54 8 7 15 19 15 27 0 8 -7
21 -15 29 -9 9 -15 33 -15 58 0 51 -13 66 -57 66 -29 0 -33 -3 -33 -25 0 -18
5 -25 20 -25 16 0 20 -7 20 -33 0 -18 6 -42 14 -52 11 -16 11 -21 0 -33 -8 -7
-14 -29 -14 -48 l0 -34 -190 0 -190 0 0 154 c0 123 -3 156 -15 166 -13 11 -13
14 0 27 10 10 15 36 15 84 0 62 2 69 20 69 15 0 20 7 20 25 0 22 -4 25 -33 25
-18 0 -38 -5 -45 -12z"/>
<path d="M3773 1523 c-18 -7 -16 -23 2 -23 13 0 15 -20 15 -120 0 -100 -2
-120 -15 -120 -8 0 -15 -4 -15 -10 0 -5 23 -10 50 -10 28 0 50 5 50 10 0 6 -7
10 -15 10 -12 0 -15 14 -15 63 0 68 10 87 47 87 29 0 43 -28 43 -88 0 -40 -4
-53 -22 -65 -22 -15 -21 -16 35 -16 32 -1 57 3 57 9 0 6 -9 10 -20 10 -18 0
-20 7 -20 78 0 47 -5 83 -12 90 -17 17 -59 15 -86 -4 l-22 -15 0 60 c0 57 -2
61 -22 60 -13 0 -29 -3 -35 -6z"/>
<path d="M1761 1424 c-96 -68 -27 -228 79 -184 40 17 38 30 -4 23 -38 -6 -76
22 -76 57 0 18 7 20 55 20 53 0 55 1 55 28 0 63 -57 92 -109 56z"/>
<path d="M2049 1419 c-16 -16 -18 -23 -9 -35 14 -16 30 -10 30 12 0 20 27 29
45 14 8 -7 15 -22 15 -35 0 -17 -9 -24 -39 -33 -48 -15 -63 -33 -59 -68 5 -41
32 -53 69 -32 27 16 32 16 45 3 9 -8 22 -15 29 -15 21 0 29 20 12 33 -10 8
-16 35 -19 85 -3 50 -8 76 -18 82 -26 17 -79 11 -101 -11z"/>
<path d="M3059 1412 c-26 -23 -31 -35 -31 -73 0 -55 16 -84 54 -100 31 -13 63
-7 93 16 19 14 17 15 -21 9 -34 -5 -46 -2 -63 15 -12 12 -21 30 -21 41 0 18 7
20 55 20 l55 0 0 33 c0 67 -66 88 -121 39z"/>
<path d="M3239 1419 c-16 -16 -18 -23 -9 -35 14 -16 30 -10 30 12 0 20 27 29
45 14 8 -7 15 -22 15 -35 0 -17 -9 -24 -39 -33 -48 -15 -63 -33 -59 -68 5 -41
32 -53 69 -32 27 16 32 16 45 3 19 -19 38 -19 53 -1 9 11 7 15 -9 19 -18 4
-20 13 -20 72 0 36 -5 75 -10 86 -15 27 -83 26 -111 -2z"/>
</g>
</svg>
